<svg width="24" height="24" viewBox="0 0 24 24" fill="none" xmlns="http://www.w3.org/2000/svg">
<path d="M23.9997 18.8569C23.9997 17.8398 23.6981 16.8455 23.133 15.9997C22.5679 15.154 21.7647 14.4948 20.825 14.1056C19.8852 13.7163 18.8512 13.6145 17.8535 13.8129C16.8559 14.0113 15.9396 14.5011 15.2203 15.2204C14.5011 15.9396 14.0113 16.856 13.8128 17.8536C13.6144 18.8512 13.7162 19.8853 14.1055 20.825C14.4947 21.7648 15.1539 22.568 15.9996 23.1331C16.8454 23.6982 17.8397 23.9998 18.8569 23.9998C20.2203 23.9982 21.5275 23.4559 22.4917 22.4917C23.4558 21.5276 23.9981 20.2204 23.9997 18.8569ZM22.2854 18.8569C22.2822 19.467 22.1143 20.0649 21.7994 20.5875L17.1263 15.9144C17.6489 15.5995 18.2468 15.4316 18.8569 15.4284C19.7658 15.4295 20.6372 15.7911 21.28 16.4338C21.9227 17.0766 22.2843 17.948 22.2854 18.8569ZM15.4283 18.8569C15.4315 18.2468 15.5994 17.6489 15.9143 17.1264L20.5874 21.7995C20.0649 22.1144 19.467 22.2823 18.8569 22.2855C17.9479 22.2844 17.0765 21.9228 16.4338 21.28C15.791 20.6373 15.4294 19.7659 15.4283 18.8569ZM5.14258 11.9998H13.714V13.7141H5.14258V11.9998ZM5.14258 6.85693H15.4283V8.57122H5.14258V6.85693Z" fill="#FF0000"/>
<path d="M10.2857 22.0569L5.79943 19.6654C4.56446 19.0085 3.5317 18.0277 2.81199 16.8282C2.09228 15.6288 1.71281 14.256 1.71429 12.8571V1.71429H18.8571V11.1429H20.5714V1.71429C20.571 1.25977 20.3902 0.823996 20.0688 0.502604C19.7474 0.181211 19.3117 0.000453837 18.8571 0H1.71429C1.25977 0.000453837 0.824002 0.181211 0.50261 0.502604C0.181217 0.823996 0.000459715 1.25977 5.87812e-06 1.71429V12.8571C-0.00190428 14.5666 0.461766 16.2443 1.34124 17.7101C2.22072 19.176 3.4828 20.3746 4.99201 21.1774L10.2857 24V22.0569Z" fill="#FF0000"/>
</svg>
