<svg width="33" height="24" viewBox="0 0 33 24" fill="none" xmlns="http://www.w3.org/2000/svg">
<path d="M27.725 24.0001H0.507994C0.226508 24.0001 0 23.7736 0 23.4921V9.04438C0 8.76289 0.226444 8.53638 0.507994 8.53638H27.725C28.0065 8.53638 28.233 8.76283 28.233 9.04438V23.4921C28.233 23.7736 28.0044 24.0001 27.725 24.0001ZM1.01592 22.9842H27.217V9.55237H1.01592V22.9842Z" fill="#9DB2CE"/>
<path d="M23.1026 21.661H5.1308C4.84932 21.661 4.62281 21.4346 4.62281 21.153C4.62281 20.2005 3.84813 19.4259 2.8957 19.4259C2.61422 19.4259 2.38771 19.1995 2.38771 18.9179V13.6201C2.38771 13.3386 2.61415 13.1121 2.8957 13.1121C3.84819 13.1121 4.62281 12.3374 4.62281 11.385C4.62281 11.1035 4.84925 10.877 5.1308 10.877H23.1026C23.3841 10.877 23.6106 11.1035 23.6106 11.385C23.6106 12.3375 24.3853 13.1121 25.3377 13.1121C25.6192 13.1121 25.8457 13.3386 25.8457 13.6201V18.9179C25.8457 19.1994 25.6193 19.4259 25.3377 19.4259C24.3852 19.4259 23.6106 20.2006 23.6106 21.153C23.6106 21.4324 23.382 21.661 23.1026 21.661ZM5.59221 20.645H22.6433C22.8507 19.538 23.7249 18.6639 24.8318 18.4565V14.0815C23.7249 13.8741 22.8507 13 22.6433 11.893H5.59221C5.3848 13 4.51067 13.8741 3.4037 14.0815V18.4565C4.50856 18.6639 5.38268 19.538 5.59221 20.645Z" fill="#9DB2CE"/>
<path d="M20.4332 17.2589C20.9803 17.2589 21.4237 16.8154 21.4237 16.2683C21.4237 15.7213 20.9803 15.2778 20.4332 15.2778C19.8861 15.2778 19.4426 15.7213 19.4426 16.2683C19.4426 16.8154 19.8861 17.2589 20.4332 17.2589Z" fill="#9DB2CE"/>
<path d="M7.79686 17.2589C8.34393 17.2589 8.78741 16.8154 8.78741 16.2683C8.78741 15.7213 8.34393 15.2778 7.79686 15.2778C7.24979 15.2778 6.80631 15.7213 6.80631 16.2683C6.80631 16.8154 7.24979 17.2589 7.79686 17.2589Z" fill="#9DB2CE"/>
<path d="M14.1156 18.916C12.6551 18.916 11.4677 17.7286 11.4677 16.2682C11.4677 14.8078 12.6573 13.6225 14.1156 13.6225C15.5739 13.6225 16.7634 14.8099 16.7634 16.2682C16.7634 17.7265 15.576 18.916 14.1156 18.916ZM14.1156 14.6385C13.216 14.6385 12.4837 15.3708 12.4837 16.2703C12.4837 17.1699 13.216 17.9022 14.1156 17.9022C15.0151 17.9022 15.7474 17.1699 15.7474 16.2703C15.7474 15.3687 15.0151 14.6385 14.1156 14.6385Z" fill="#9DB2CE"/>
<path d="M27.7254 15.9232C27.5582 15.9232 27.3952 15.8407 27.2978 15.6903C27.1455 15.4533 27.2153 15.1401 27.4502 14.9876L31.3024 12.5154L24.0468 1.21091L11.1759 9.4719C10.9388 9.62428 10.6256 9.55443 10.4732 9.31953C10.3208 9.08245 10.3906 8.76925 10.6255 8.61681L23.9241 0.0806761C24.0384 0.00871885 24.1759 -0.016655 24.3072 0.0108336C24.4384 0.0404367 24.5527 0.118802 24.6268 0.233049L32.4306 12.3927C32.5025 12.5071 32.5279 12.6446 32.5004 12.7759C32.4708 12.9071 32.3925 13.0214 32.2782 13.0955L27.9985 15.8407C27.9137 15.8957 27.8185 15.9232 27.7254 15.9232Z" fill="#9DB2CE"/>
<path d="M26.8427 9.5521C26.6754 9.5521 26.5125 9.46957 26.4151 9.31925L24.4848 6.31159C24.1546 6.44493 23.8054 6.51054 23.4603 6.51054C22.7174 6.51054 21.9872 6.20996 21.4602 5.65122L15.5063 9.47162C15.2692 9.62399 14.956 9.55415 14.8036 9.31925C14.6512 9.08217 14.721 8.76896 14.9559 8.61653L21.2972 4.54636C21.4115 4.4744 21.5491 4.44903 21.6803 4.47651C21.8115 4.50612 21.9259 4.58448 21.9999 4.69873C22.5143 5.5009 23.5852 5.73375 24.3874 5.21941C24.6245 5.06704 24.9377 5.13688 25.0901 5.37178L27.2702 8.76678C27.4225 9.00386 27.3527 9.31707 27.1178 9.46951C27.031 9.52673 26.9358 9.5521 26.8427 9.5521Z" fill="#9DB2CE"/>
<path d="M27.725 24.0001H0.507994C0.226508 24.0001 0 23.7736 0 23.4921V9.04438C0 8.76289 0.226444 8.53638 0.507994 8.53638H27.725C28.0065 8.53638 28.233 8.76283 28.233 9.04438V23.4921C28.233 23.7736 28.0044 24.0001 27.725 24.0001ZM1.01592 22.9842H27.217V9.55237H1.01592V22.9842Z" fill="#9DB2CE"/>
</svg>
