<svg width="13" height="16" viewBox="0 0 13 16" fill="none" xmlns="http://www.w3.org/2000/svg">
<path d="M6.28577 9.14289C5.72068 9.14289 5.16829 8.97532 4.69843 8.66138C4.22858 8.34743 3.86238 7.90121 3.64613 7.37914C3.42988 6.85707 3.3733 6.2826 3.48354 5.72837C3.59378 5.17414 3.8659 4.66505 4.26548 4.26548C4.66505 3.8659 5.17414 3.59378 5.72837 3.48354C6.2826 3.3733 6.85707 3.42988 7.37914 3.64613C7.90121 3.86238 8.34743 4.22858 8.66138 4.69843C8.97532 5.16829 9.14289 5.72068 9.14289 6.28577C9.14198 7.04324 8.84068 7.76944 8.30506 8.30506C7.76944 8.84068 7.04324 9.14198 6.28577 9.14289ZM6.28577 4.57149C5.94672 4.57149 5.61528 4.67203 5.33337 4.8604C5.05146 5.04877 4.83173 5.3165 4.70198 5.62974C4.57223 5.94299 4.53829 6.28767 4.60443 6.62021C4.67058 6.95274 4.83385 7.2582 5.07359 7.49794C5.31334 7.73769 5.61879 7.90096 5.95133 7.9671C6.28387 8.03325 6.62855 7.9993 6.94179 7.86955C7.25503 7.7398 7.52277 7.52008 7.71113 7.23817C7.8995 6.95626 8.00004 6.62482 8.00004 6.28577C7.99959 5.83125 7.81883 5.39548 7.49744 5.07409C7.17605 4.7527 6.74028 4.57195 6.28577 4.57149Z" fill="black"/>
<path d="M6.28568 15.9999L1.46514 10.3148C1.39816 10.2294 1.33187 10.1435 1.26628 10.0571C0.44285 8.97239 -0.00198924 7.64751 6.68732e-06 6.28567C6.68732e-06 4.61861 0.662245 3.01982 1.84104 1.84103C3.01983 0.662239 4.61862 0 6.28568 0C7.95274 0 9.55153 0.662239 10.7303 1.84103C11.9091 3.01982 12.5714 4.61861 12.5714 6.28567C12.5733 7.64689 12.1287 8.97117 11.3056 10.0554L11.3051 10.0571C11.3051 10.0571 11.1336 10.2822 11.1079 10.3125L6.28568 15.9999ZM2.17885 9.36851C2.17885 9.36851 2.31199 9.54451 2.34228 9.58222L6.28568 14.233L10.2342 9.57594C10.2594 9.54451 10.3931 9.36737 10.3937 9.36679C11.0663 8.48058 11.4298 7.39825 11.4285 6.28567C11.4285 4.92171 10.8867 3.61361 9.9222 2.64915C8.95774 1.68468 7.64964 1.14285 6.28568 1.14285C4.92172 1.14285 3.61362 1.68468 2.64915 2.64915C1.68469 3.61361 1.14286 4.92171 1.14286 6.28567C1.14166 7.39894 1.50558 8.48189 2.17885 9.36851Z" fill="black"/>
</svg>
