<svg width="15" height="15" viewBox="0 0 15 15" fill="none" xmlns="http://www.w3.org/2000/svg">
<path fill-rule="evenodd" clip-rule="evenodd" d="M1.93153 5.82784C3.46517 9.16846 6.19008 11.8158 9.5725 13.2513L9.58278 13.2556L10.2371 13.5469C10.6412 13.7272 11.0951 13.7629 11.5224 13.6479C11.9497 13.5329 12.3245 13.2742 12.5837 12.9154L13.6747 11.4046C13.7068 11.3601 13.7206 11.305 13.7133 11.2507C13.706 11.1963 13.6781 11.1468 13.6354 11.1124L11.7307 9.57426C11.7082 9.55612 11.6823 9.54272 11.6545 9.53486C11.6267 9.527 11.5976 9.52485 11.569 9.52853C11.5403 9.53221 11.5127 9.54165 11.4878 9.55629C11.4629 9.57092 11.4412 9.59044 11.4241 9.61368L10.6824 10.6146C10.595 10.7326 10.4699 10.8172 10.3277 10.8542C10.1856 10.8911 10.0351 10.8782 9.90136 10.8176C7.36727 9.669 5.33703 7.6376 4.18905 5.10204C4.12851 4.96818 4.11563 4.81761 4.15256 4.67541C4.1895 4.53321 4.27401 4.40796 4.39202 4.32054L5.39146 3.57759C5.41469 3.56042 5.4342 3.53872 5.44882 3.51381C5.46345 3.48889 5.47289 3.46127 5.47657 3.43261C5.48025 3.40395 5.47809 3.37485 5.47024 3.34704C5.46238 3.31924 5.44899 3.29331 5.43086 3.27082L3.89444 1.36505C3.86007 1.32231 3.81061 1.2944 3.75628 1.28707C3.70195 1.27973 3.64687 1.29354 3.60241 1.32563L2.08397 2.42248C1.72291 2.68307 1.46316 3.06072 1.34888 3.49124C1.23459 3.92177 1.27283 4.37861 1.45708 4.78412L1.93153 5.82784ZM9.0655 14.4321C5.3907 12.8708 2.43048 9.99354 0.764233 6.36341L0.76252 6.3617L0.288064 5.31627C-0.0190302 4.64054 -0.0828431 3.87927 0.107467 3.16179C0.297778 2.44432 0.730473 1.8149 1.33204 1.38047L2.85047 0.283623C3.16146 0.0590439 3.54666 -0.0376976 3.92679 0.0133123C4.30691 0.0643221 4.65302 0.259201 4.89388 0.557835L6.43116 2.46446C6.55802 2.62177 6.65179 2.80311 6.70683 2.9976C6.76187 3.19208 6.77705 3.3957 6.75145 3.5962C6.72585 3.7967 6.66 3.98996 6.55787 4.16435C6.45573 4.33875 6.31941 4.49068 6.1571 4.61103L5.5833 5.03606C6.55343 6.91813 8.08547 8.45104 9.96645 9.42173L10.3921 8.8476C10.5124 8.68532 10.6642 8.54904 10.8384 8.44692C11.0126 8.3448 11.2057 8.27896 11.4059 8.25335C11.6062 8.22774 11.8096 8.24289 12.0039 8.29789C12.1982 8.35288 12.3794 8.44659 12.5366 8.57339L14.4421 10.1115C14.7408 10.3526 14.9357 10.6991 14.9867 11.0796C15.0377 11.4601 14.9409 11.8458 14.7162 12.157L13.6251 13.6686C13.1932 14.2667 12.5688 14.6978 11.8567 14.8896C11.1446 15.0813 10.3882 15.0221 9.71467 14.7217L9.0655 14.4321Z" fill="black"/>
</svg>
