<svg width="28" height="31" viewBox="0 0 28 31" fill="none" xmlns="http://www.w3.org/2000/svg">
<rect x="0.25" y="0.25" width="27.5" height="30.5" rx="4.75" stroke="black" stroke-width="0.5"/>
<path d="M20.4488 19.3691C20.0202 18.987 19.645 18.549 19.3332 18.0668C18.9929 17.4013 18.7889 16.6745 18.7332 15.9291V13.7335C18.7362 12.5627 18.3115 11.4311 17.5389 10.5513C16.7663 9.67149 15.6991 9.10411 14.5377 8.95573V8.3824C14.5377 8.22503 14.4752 8.07412 14.3639 7.96285C14.2526 7.85157 14.1017 7.78906 13.9444 7.78906C13.787 7.78906 13.6361 7.85157 13.5248 7.96285C13.4135 8.07412 13.351 8.22503 13.351 8.3824V8.96462C12.2 9.1237 11.1457 9.69451 10.3833 10.5713C9.62084 11.4482 9.20202 12.5716 9.20436 13.7335V15.9291C9.14869 16.6745 8.9447 17.4013 8.60436 18.0668C8.29808 18.5479 7.92889 18.9858 7.50658 19.3691C7.45917 19.4107 7.42118 19.462 7.39512 19.5195C7.36907 19.5769 7.35555 19.6393 7.35547 19.7024V20.3068C7.35547 20.4247 7.40229 20.5378 7.48564 20.6211C7.56899 20.7045 7.68204 20.7513 7.79991 20.7513H20.1555C20.2733 20.7513 20.3864 20.7045 20.4697 20.6211C20.5531 20.5378 20.5999 20.4247 20.5999 20.3068V19.7024C20.5998 19.6393 20.5863 19.5769 20.5603 19.5195C20.5342 19.462 20.4962 19.4107 20.4488 19.3691ZM8.27991 19.8624C8.69343 19.4629 9.05751 19.0153 9.36436 18.5291C9.79307 17.7253 10.0432 16.8384 10.0977 15.9291V13.7335C10.0801 13.2126 10.1674 12.6935 10.3546 12.2071C10.5418 11.7207 10.8249 11.277 11.1871 10.9023C11.5494 10.5276 11.9833 10.2296 12.4631 10.0261C12.9429 9.82256 13.4587 9.71769 13.9799 9.71769C14.5011 9.71769 15.0169 9.82256 15.4967 10.0261C15.9765 10.2296 16.4105 10.5276 16.7727 10.9023C17.1349 11.277 17.4181 11.7207 17.6052 12.2071C17.7924 12.6935 17.8798 13.2126 17.8621 13.7335V15.9291C17.9166 16.8384 18.1668 17.7253 18.5955 18.5291C18.9023 19.0153 19.2664 19.4629 19.6799 19.8624H8.27991Z" fill="black"/>
<path d="M13.9997 22.2355C14.2797 22.2291 14.5483 22.1238 14.7582 21.9384C14.968 21.7529 15.1055 21.4992 15.1464 21.2222H12.8086C12.8506 21.5068 12.9945 21.7664 13.2136 21.9528C13.4327 22.1392 13.7121 22.2397 13.9997 22.2355Z" fill="black"/>
</svg>
