<svg width="16" height="16" viewBox="0 0 16 16" fill="none" xmlns="http://www.w3.org/2000/svg">
<path d="M4.79259 10.2907H5.70895V7.54167H9.83256V9.18012L11.9292 7.08349L9.83256 4.96853V6.62531H5.53301C5.32285 6.62531 5.14691 6.69556 5.00518 6.83607C4.86345 6.97658 4.79259 7.15069 4.79259 7.35839V10.2907ZM8.00351 15.9997C7.81902 15.9997 7.63666 15.963 7.45644 15.8897C7.27684 15.8152 7.11251 15.704 6.96344 15.5561L0.443547 9.03625C0.295708 8.88841 0.184523 8.7253 0.109993 8.54691C0.0354622 8.36853 -0.00119225 8.18739 2.95599e-05 8.00351C0.00125137 7.81963 0.0379059 7.63727 0.109993 7.45644C0.18208 7.27562 0.293264 7.11128 0.443547 6.96344L6.96344 0.443547C7.11128 0.295708 7.27439 0.184523 7.45278 0.109993C7.63116 0.0354622 7.8123 -0.00119225 7.99618 2.95599e-05C8.18006 0.00125137 8.36242 0.0379059 8.54325 0.109993C8.72408 0.18208 8.88841 0.293264 9.03625 0.443547L15.5561 6.96344C15.704 7.11128 15.8152 7.27439 15.8897 7.45278C15.9642 7.63116 16.0009 7.8123 15.9997 7.99618C15.9984 8.18006 15.9618 8.36242 15.8897 8.54325C15.8176 8.72408 15.7064 8.88841 15.5561 9.03625L9.03625 15.5561C8.88841 15.704 8.7253 15.8152 8.54691 15.8897C8.36853 15.9642 8.18739 16.0009 8.00351 15.9997ZM4.33441 11.6653L7.61223 14.9431C7.71791 15.0488 7.84712 15.1016 7.99985 15.1016C8.15257 15.1016 8.28178 15.0488 8.38747 14.9431L14.9431 8.38747C15.0488 8.28178 15.1016 8.15257 15.1016 7.99985C15.1016 7.84712 15.0488 7.71791 14.9431 7.61223L8.38747 1.05659C8.28178 0.950905 8.15257 0.898062 7.99985 0.898062C7.84712 0.898062 7.71791 0.950905 7.61223 1.05659L1.05659 7.61223C0.950905 7.71791 0.898062 7.84712 0.898062 7.99985C0.898062 8.15257 0.950905 8.28178 1.05659 8.38747L4.33441 11.6653Z" fill="black"/>
</svg>
