<svg width="26" height="26" viewBox="0 0 26 26" fill="none" xmlns="http://www.w3.org/2000/svg">
<path d="M25.1962 13.9707C25.0104 16.3058 24.1582 18.5384 22.7408 20.4033C21.3235 22.2683 19.4006 23.6871 17.2006 24.4914C15.0006 25.2957 12.616 25.4515 10.33 24.9404C8.04404 24.4293 5.95285 23.2727 4.30486 21.6081C2.65688 19.9434 1.52137 17.8407 1.03326 15.5497C0.54514 13.2587 0.724928 10.8758 1.55126 8.68398C2.37759 6.49217 3.81574 4.58364 5.69483 3.18511C7.57393 1.78659 9.81499 0.956872 12.1518 0.794532" stroke="white" stroke-width="1.5" stroke-linecap="round" stroke-linejoin="round"/>
<path d="M18.2505 15.0514C17.9106 15.9263 17.358 16.7027 16.6426 17.3103C15.9272 17.918 15.0717 18.3377 14.1533 18.5316C13.235 18.7254 12.2828 18.6873 11.3828 18.4207C10.4829 18.1541 9.6636 17.6674 8.99905 17.0045C8.33451 16.3417 7.84566 15.5237 7.57673 14.6244C7.30779 13.7252 7.26724 12.7731 7.45876 11.8542C7.65027 10.9353 8.0678 10.0787 8.67359 9.36178C9.27938 8.64484 10.0543 8.09021 10.9283 7.74805M12.9989 12.9997L17.7047 8.29392M17.7047 8.29392L21.4693 9.23508L25.2339 5.47045L21.4693 4.52929L20.5281 0.764662L16.7635 4.52929L17.7047 8.29392Z" stroke="white" stroke-width="1.5" stroke-linecap="round" stroke-linejoin="round"/>
</svg>
