<svg width="202" height="170" viewBox="0 0 202 170" fill="none" xmlns="http://www.w3.org/2000/svg">
<path d="M150.903 23.0289C153.17 19.3057 158.049 18.1005 161.577 20.6605C171.809 28.0838 180.528 37.4336 187.23 48.2104C195.325 61.2263 200.251 75.9604 201.613 91.2273C202.974 106.494 200.733 121.868 195.07 136.111C190.381 147.903 183.455 158.649 174.698 167.765C171.678 170.909 166.663 170.587 163.773 167.324C160.882 164.061 161.216 159.096 164.187 155.906C171.12 148.46 176.625 139.774 180.401 130.278C185.151 118.331 187.031 105.436 185.888 92.6298C184.746 79.8239 180.614 67.4649 173.825 56.5472C168.428 47.8692 161.472 40.2945 153.331 34.1934C149.843 31.5791 148.635 26.752 150.903 23.0289Z" fill="#D9D9D9"/>
<mask id="path-2-inside-1_2171_4159" fill="white">
<path d="M28.7888 158.672C25.3682 161.563 20.2199 161.152 17.6309 157.497C11.792 149.255 7.28786 140.112 4.29296 130.388C0.497629 118.064 -0.799615 105.049 0.475327 92.0846C1.75026 79.1201 5.57238 66.4605 11.7235 54.8286C17.8746 43.1966 26.2342 32.8201 36.325 24.2914C46.4158 15.7628 58.0402 9.24908 70.5345 5.12218C83.0288 0.995287 96.1483 -0.663963 109.144 0.239175C122.14 1.1423 134.757 4.59013 146.275 10.3858C155.365 14.9591 163.629 20.9238 170.783 28.0544C173.955 31.2162 173.503 36.361 170.082 39.2521C166.662 42.1431 161.572 41.6793 158.348 38.5699C152.566 32.9924 145.956 28.3036 138.724 24.6649C129.063 19.8035 118.48 16.9115 107.579 16.154C96.6782 15.3964 85.6737 16.7882 75.1936 20.2498C64.7134 23.7114 54.963 29.1751 46.4989 36.3288C38.0348 43.4826 31.0228 52.1863 25.8633 61.9432C20.7038 71.7 17.4978 82.3188 16.4284 93.1932C15.359 104.068 16.4471 114.985 19.6306 125.322C22.0135 133.059 25.5354 140.357 30.0714 146.988C32.6002 150.684 32.2094 155.78 28.7888 158.672Z"/>
</mask>
<path d="M28.7888 158.672C25.3682 161.563 20.2199 161.152 17.6309 157.497C11.792 149.255 7.28786 140.112 4.29296 130.388C0.497629 118.064 -0.799615 105.049 0.475327 92.0846C1.75026 79.1201 5.57238 66.4605 11.7235 54.8286C17.8746 43.1966 26.2342 32.8201 36.325 24.2914C46.4158 15.7628 58.0402 9.24908 70.5345 5.12218C83.0288 0.995287 96.1483 -0.663963 109.144 0.239175C122.14 1.1423 134.757 4.59013 146.275 10.3858C155.365 14.9591 163.629 20.9238 170.783 28.0544C173.955 31.2162 173.503 36.361 170.082 39.2521C166.662 42.1431 161.572 41.6793 158.348 38.5699C152.566 32.9924 145.956 28.3036 138.724 24.6649C129.063 19.8035 118.48 16.9115 107.579 16.154C96.6782 15.3964 85.6737 16.7882 75.1936 20.2498C64.7134 23.7114 54.963 29.1751 46.4989 36.3288C38.0348 43.4826 31.0228 52.1863 25.8633 61.9432C20.7038 71.7 17.4978 82.3188 16.4284 93.1932C15.359 104.068 16.4471 114.985 19.6306 125.322C22.0135 133.059 25.5354 140.357 30.0714 146.988C32.6002 150.684 32.2094 155.78 28.7888 158.672Z" fill="#D9D9D9" stroke="black" stroke-width="40" stroke-linejoin="round" mask="url(#path-2-inside-1_2171_4159)"/>
</svg>
