<svg width="24" height="23" viewBox="0 0 24 23" fill="none" xmlns="http://www.w3.org/2000/svg">
<path d="M2.04 20.2105C1.45895 20.2105 0.973895 20.016 0.584842 19.6269C0.19579 19.2379 0.000842105 18.7524 0 18.1705V5.82947C0 5.24842 0.194947 4.76337 0.584842 4.37432C0.974737 3.98526 1.45979 3.79032 2.04 3.78947H7.57895V2.04C7.57895 1.45895 7.77389 0.973894 8.16379 0.584842C8.55368 0.195789 9.03874 0.000842105 9.61895 0H13.1179C13.6989 0 14.1844 0.194947 14.5743 0.584842C14.9642 0.974737 15.1587 1.45979 15.1579 2.04V3.78947H20.6968C21.2779 3.78947 21.7629 3.98442 22.152 4.37432C22.5411 4.76421 22.736 5.24926 22.7368 5.82947V11.1322C22.5364 11.0051 22.3347 10.8939 22.1318 10.7987C21.9288 10.7036 21.7095 10.6152 21.4737 10.5335V5.82821C21.4737 5.60168 21.4008 5.41558 21.2552 5.26989C21.1095 5.12421 20.9234 5.05179 20.6968 5.05263H2.04C1.81347 5.05263 1.62737 5.12547 1.48168 5.27116C1.336 5.41684 1.26316 5.60295 1.26316 5.82947V18.1705C1.26316 18.3971 1.336 18.5832 1.48168 18.7288C1.62737 18.8745 1.81347 18.9474 2.04 18.9474H11.4632C11.5103 19.1789 11.5608 19.3958 11.6147 19.5979C11.6686 19.8 11.7331 20.0042 11.808 20.2105H2.04ZM8.8421 3.78947H13.8947V2.04C13.8947 1.81347 13.8219 1.62737 13.6762 1.48168C13.5305 1.336 13.3444 1.26316 13.1179 1.26316H9.61895C9.39242 1.26316 9.20632 1.336 9.06063 1.48168C8.91495 1.62737 8.8421 1.81347 8.8421 2.04V3.78947ZM18.9474 22.7368C17.5402 22.7368 16.3461 22.2467 15.3651 21.2665C14.384 20.2863 13.8939 19.0922 13.8947 17.6842C13.8956 16.2762 14.3857 15.0821 15.3651 14.1019C16.3444 13.1217 17.5385 12.6316 18.9474 12.6316C20.3562 12.6316 21.5503 13.1217 22.5297 14.1019C23.5091 15.0821 23.9992 16.2762 24 17.6842C24.0008 19.0922 23.5107 20.2863 22.5297 21.2665C21.5486 22.2467 20.3545 22.7368 18.9474 22.7368ZM19.4337 17.4796V14.04H18.4611V17.8888L21.0316 20.4581L21.7213 19.7684L19.4337 17.4796Z" fill="#9DB2CE"/>
</svg>
