<svg width="19" height="24" viewBox="0 0 19 24" fill="none" xmlns="http://www.w3.org/2000/svg">
<path d="M16.8077 23.3846H2.19231C0.979231 23.3846 0 22.4054 0 21.1923V2.19231C0 0.979231 0.979231 0 2.19231 0H12.5546C13.1392 0 13.6946 0.233846 14.1038 0.643077L18.3569 4.89615C18.7662 5.30538 19 5.86077 19 6.44538V21.1923C19 22.4054 18.0208 23.3846 16.8077 23.3846ZM2.19231 1.46154C1.78308 1.46154 1.46154 1.78308 1.46154 2.19231V21.1923C1.46154 21.6015 1.78308 21.9231 2.19231 21.9231H16.8077C17.2169 21.9231 17.5385 21.6015 17.5385 21.1923V6.44538C17.5396 6.34954 17.5207 6.25452 17.483 6.16642C17.4452 6.07832 17.3894 5.9991 17.3192 5.93385L13.0662 1.68077C12.9312 1.54308 12.7474 1.46428 12.5546 1.46154H2.19231Z" fill="#FF0000"/>
<path d="M18.0939 7.3076H13.8408C12.657 7.3076 11.6924 6.34299 11.6924 5.15914V0.906062C11.6924 0.496831 12.0139 0.175293 12.4232 0.175293C12.8324 0.175293 13.1539 0.496831 13.1539 0.906062V5.15914C13.1539 5.53914 13.4608 5.84606 13.8408 5.84606H18.0939C18.5032 5.84606 18.8247 6.1676 18.8247 6.57683C18.8247 6.98606 18.5032 7.3076 18.0939 7.3076Z" fill="#FF0000"/>
</svg>
