<svg width="23" height="23" viewBox="0 0 23 23" fill="none" xmlns="http://www.w3.org/2000/svg">
<path d="M11.5 0C9.22552 0 7.00211 0.674463 5.11095 1.9381C3.21978 3.20174 1.7458 4.99779 0.87539 7.09914C0.00498277 9.20049 -0.222756 11.5128 0.220974 13.7435C0.664704 15.9743 1.75997 18.0234 3.36828 19.6317C4.97658 21.24 7.02568 22.3353 9.25646 22.779C11.4872 23.2228 13.7995 22.995 15.9009 22.1246C18.0022 21.2542 19.7983 19.7802 21.0619 17.8891C22.3255 15.9979 23 13.7745 23 11.5C22.9968 8.451 21.7841 5.5278 19.6282 3.37183C17.4722 1.21586 14.549 0.0032198 11.5 0ZM11.5 21.2308C9.57544 21.2308 7.69409 20.6601 6.09388 19.5908C4.49366 18.5216 3.24644 17.0019 2.50995 15.2238C1.77345 13.4457 1.58075 11.4892 1.95621 9.60162C2.33167 7.71404 3.25844 5.98018 4.61931 4.61931C5.98018 3.25843 7.71404 2.33167 9.60162 1.9562C11.4892 1.58074 13.4457 1.77344 15.2238 2.50994C17.0019 3.24644 18.5216 4.49366 19.5908 6.09387C20.6601 7.69409 21.2308 9.57543 21.2308 11.5C21.2278 14.0799 20.2017 16.5532 18.3775 18.3775C16.5532 20.2017 14.0799 21.2278 11.5 21.2308ZM18.5769 11.5C18.5769 11.7346 18.4837 11.9596 18.3178 12.1255C18.1519 12.2914 17.9269 12.3846 17.6923 12.3846H11.5C11.2654 12.3846 11.0404 12.2914 10.8745 12.1255C10.7086 11.9596 10.6154 11.7346 10.6154 11.5V5.30769C10.6154 5.07308 10.7086 4.84807 10.8745 4.68217C11.0404 4.51628 11.2654 4.42308 11.5 4.42308C11.7346 4.42308 11.9596 4.51628 12.1255 4.68217C12.2914 4.84807 12.3846 5.07308 12.3846 5.30769V10.6154H17.6923C17.9269 10.6154 18.1519 10.7086 18.3178 10.8745C18.4837 11.0404 18.5769 11.2654 18.5769 11.5Z" fill="black"/>
</svg>
