<svg width="21" height="20" viewBox="0 0 21 20" fill="none" xmlns="http://www.w3.org/2000/svg">
<path d="M18.0522 4.81833L12.2915 0.787837C10.7213 -0.312298 8.31101 -0.25229 6.80083 0.917853L1.79022 4.82833C0.790096 5.60843 0 7.20862 0 8.46877V15.3696C0 17.9199 2.07025 20.0002 4.62056 20.0002H15.4019C17.9522 20.0002 20.0224 17.9299 20.0224 15.3796V8.59879C20.0224 7.24863 19.1523 5.58842 18.0522 4.81833ZM10.7613 15.9997C10.7613 16.4097 10.4213 16.7498 10.0112 16.7498C9.60117 16.7498 9.26113 16.4097 9.26113 15.9997V12.9993C9.26113 12.5893 9.60117 12.2492 10.0112 12.2492C10.4213 12.2492 10.7613 12.5893 10.7613 12.9993V15.9997Z" fill="#9DB2CE"/>
</svg>
